<?xml version="1.0" encoding="UTF-8" standalone="no"?>
<svg
   version="1.0"
   width="1024.000000pt"
   height="1024.000000pt"
   viewBox="0 0 1024.000000 1024.000000"
   preserveAspectRatio="xMidYMid meet"
   id="svg102"
   sodipodi:docname="staden-lg.svg"
   inkscape:export-filename="ted.png"
   inkscape:export-xdpi="96"
   inkscape:export-ydpi="96"
   inkscape:version="1.2.2 (b0a8486541, 2022-12-01)"
   xmlns:inkscape="http://www.inkscape.org/namespaces/inkscape"
   xmlns:sodipodi="http://sodipodi.sourceforge.net/DTD/sodipodi-0.dtd"
   xmlns="http://www.w3.org/2000/svg"
   xmlns:svg="http://www.w3.org/2000/svg">
  <defs
     id="defs106">
    <rect
       x="678.13112"
       y="1215.6266"
       width="47.74804"
       height="34.862983"
       id="rect477" />
    <rect
       x="514.26043"
       y="658.29022"
       width="756.03168"
       height="459.25407"
       id="rect443" />
  </defs>
  <sodipodi:namedview
     id="namedview104"
     pagecolor="#ffffff"
     bordercolor="#000000"
     borderopacity="0.25"
     inkscape:showpageshadow="2"
     inkscape:pageopacity="0.0"
     inkscape:pagecheckerboard="0"
     inkscape:deskcolor="#d1d1d1"
     inkscape:document-units="pt"
     showgrid="false"
     inkscape:zoom="0.37288834"
     inkscape:cx="360.69779"
     inkscape:cy="740.16795"
     inkscape:window-width="1920"
     inkscape:window-height="1012"
     inkscape:window-x="0"
     inkscape:window-y="0"
     inkscape:window-maximized="1"
     inkscape:current-layer="g100" />
  <metadata
     id="metadata2">
Created by potrace 1.16, written by Peter Selinger 2001-2019
</metadata>
  <g
     transform="translate(0.000000,1024.000000) scale(0.100000,-0.100000)"
     fill="#000000"
     stroke="none"
     id="g100">
    <path
       d="m 2641.54,9167.1633 c -101.64,-25.41 -173.25,-69.3 -173.25,-106.26 0,-18.48 -11.55,-32.34 -25.41,-27.72 -13.86,2.31 -34.65,-18.48 -46.2,-48.51 -13.86,-36.96 -11.55,-48.51 4.62,-36.96 18.48,9.24 18.48,0 0,-32.34 -13.86,-25.41 -25.41,-76.23 -25.41,-113.19 0,-50.82 -4.62,-57.75 -23.1,-30.03 -30.03,46.2 -30.03,-1411.41 0,-1614.69 43.89,-304.92 237.9301,-434.28 528.99,-348.81 90.09,25.41 233.31,152.46 233.31,205.59 0,27.72 -13.86,20.79 -48.51,-20.79 l -46.2,-57.75 36.96,76.23 c 20.79,41.58 46.2,69.3 55.44,64.68 9.24,-6.93 13.86,11.55 9.24,41.58 -13.86,66.99 73.92,133.98 159.39,127.05 110.88,-9.24 371.91,2.31 358.05,18.48 -9.24,6.93 -136.29,13.86 -281.8199,9.24 -256.41,-4.62 -265.6501,-2.31 -265.6501,46.2 0,25.41 -18.48,78.54 -39.2699,115.5 -32.3401,53.13 -34.65,73.92 -11.5501,85.47 20.79,13.86 27.7201,143.22 30.0301,496.65 0,263.34 9.24,478.17 18.48,478.17 9.24,0 27.72,69.3 41.58,152.46 41.58,240.24 -36.96,404.25 -235.62,496.65 -97.02,46.2 -143.22,48.51 -254.1001,23.1 z m 404.25,-164.01 c 0,-11.55 -4.62,-23.1 -9.24,-23.1 -6.93,0 -18.48,11.55 -25.41,23.1 -6.93,13.86 -2.31,23.1 9.24,23.1 13.86,0 25.41,-9.24 25.41,-23.1 z m -630.63,-189.42 c -6.93,-18.48 -13.86,-11.55 -13.86,13.86 -2.31,25.41 4.62,39.27 11.5501,30.03 6.93,-6.93 9.2399,-27.72 2.3099,-43.89 z m 699.93,-120.12 c 0,-27.72 -11.55,-16.17 -43.89,55.44 -25.41,55.44 -25.41,55.44 6.93,13.86 20.79,-25.41 36.96,-55.44 36.96,-69.3 z m -69.3,46.2 c 0,-6.93 -9.24,-18.48 -23.0999,-25.41 -11.55,-6.93 -23.1001,-2.31 -23.1001,9.24 0,13.86 11.5501,25.41 23.1001,25.41 13.8599,0 23.0999,-4.62 23.0999,-9.24 z m -632.9399,-122.43 c -25.41,-25.41 -43.8901,13.86 -25.41,55.44 18.4799,39.27 18.4799,39.27 27.7199,0 6.93,-23.1 4.62,-48.51 -2.3099,-55.44 z m 20.79,-524.37 c 4.6199,-136.29 0,-270.27 -11.5501,-297.99 -13.8599,-32.34 -20.79,55.44 -20.79,258.72 -2.31,170.94 2.31,304.92 9.24,297.99 6.9301,-6.93 18.4801,-124.74 23.1001,-258.72 z m -64.6801,120.12 c -6.93,-16.17 -11.55,-4.62 -11.55,27.72 0,32.34 4.62,43.89 11.55,30.03 4.62,-16.17 4.62,-43.89 0,-57.75 z m 0,-358.05 c -6.93,-23.1 -11.55,-4.62 -11.55,39.27 0,43.89 4.62,62.37 11.55,41.58 4.62,-23.1 4.62,-60.06 0,-80.85 z m 73.92,-803.88 c 0,-11.55 -9.24,-6.93 -20.79,11.55 -11.55,18.48 -20.79,50.82 -20.79,69.3 0,36.96 39.27,-36.96 41.58,-80.85 z"
       id="path4"
       style="stroke-width:2.31" />
    <path
       d="m 7501.78,9148.6833 c -78.54,-32.34 -187.11,-143.22 -168.63,-170.94 4.62,-9.24 -2.31,-25.41 -13.86,-32.34 -36.96,-23.1 -20.79,-395.01 18.48,-471.24 23.1,-43.89 30.03,-161.7 27.72,-457.38 0,-311.85 4.62,-399.63 27.72,-399.63 20.79,0 23.1,-6.93 4.62,-18.48 -13.86,-9.24 -23.1,-41.58 -20.79,-71.61 2.31,-32.34 -9.24,-99.33 -23.1,-150.15 -16.17,-53.13 -20.79,-115.5 -11.55,-140.91 23.1,-64.68 -13.86,-129.36 -64.68,-110.88 -32.34,11.55 -34.65,6.93 -11.55,-16.17 18.48,-20.79 20.79,-41.58 6.93,-57.75 -30.03,-36.96 106.26,-187.11 212.52,-231 92.4,-36.96 307.23,-48.51 286.44,-13.86 -9.24,11.55 6.93,16.17 32.34,9.24 69.3,-18.48 154.77,50.82 224.07,184.8 l 64.68,120.12 -4.62,808.5 c -4.62,815.43 -16.17,1004.85 -53.13,1004.85 -11.55,0 -32.34,-34.65 -43.89,-73.92 -13.86,-50.82 -20.79,-60.06 -23.1,-27.72 -2.31,25.41 11.55,66.99 30.03,90.09 101.64,138.6 -288.75,314.16 -496.65,226.38 z m 358.05,-48.51 c 4.62,-9.24 -9.24,-18.48 -32.34,-18.48 -23.1,0 -36.96,9.24 -32.34,18.48 6.93,9.24 20.79,18.48 32.34,18.48 11.55,0 25.41,-9.24 32.34,-18.48 z m -485.1,-198.66 c -18.48,-25.41 -34.65,-83.16 -34.65,-129.36 -4.62,-66.99 -6.93,-69.3 -13.86,-18.48 -13.86,85.47 36.96,267.96 62.37,226.38 11.55,-18.48 6.93,-50.82 -13.86,-78.54 z m 653.73,-87.78 c -6.93,-18.48 -13.86,-11.55 -13.86,13.86 -2.31,25.41 4.62,39.27 11.55,30.03 6.93,-6.93 9.24,-27.72 2.31,-43.89 z m -616.77,-344.19 c 0,-20.79 -9.24,-18.48 -34.65,2.31 -18.48,16.17 -34.65,43.89 -34.65,62.37 0,27.72 4.62,27.72 34.65,-2.31 18.48,-18.48 34.65,-46.2 34.65,-62.37 z m 616.77,-325.71 c -6.93,-18.48 -13.86,-11.55 -13.86,13.86 -2.31,25.41 4.62,39.27 11.55,30.03 6.93,-6.93 9.24,-27.72 2.31,-43.89 z m 23.1,-242.55 c -6.93,-23.1 -11.55,-4.62 -11.55,39.27 0,43.89 4.62,62.37 11.55,41.58 4.62,-23.1 4.62,-60.06 0,-80.85 z m 0,-358.05 c -4.62,-55.44 -9.24,-11.55 -9.24,97.02 0,108.57 4.62,152.46 9.24,99.33 4.62,-55.44 4.62,-143.22 0,-196.35 z m 0,-300.3 c -4.62,-30.03 -9.24,-6.93 -9.24,50.82 0,57.75 4.62,80.85 9.24,53.13 4.62,-30.03 4.62,-76.23 0,-103.95 z m -46.2,-46.2 c -6.93,-16.17 -11.55,-4.62 -11.55,27.72 0,32.34 4.62,43.89 11.55,30.03 4.62,-16.17 4.62,-43.89 0,-57.75 z m -612.15,-191.73 c 9.24,-11.55 18.48,-32.34 18.48,-46.2 0,-16.17 -6.93,-16.17 -18.48,0 -9.24,13.86 -30.03,23.1 -48.51,23.1 -18.48,0 -36.96,11.55 -41.58,25.41 -11.55,32.34 66.99,30.03 90.09,-2.31 z"
       id="path6"
       style="stroke-width:2.31" />
    <path
       d="m 6885.01,8755.9833 c -27.72,-4.62 -46.2,-20.79 -39.27,-32.34 6.93,-11.55 0,-13.86 -18.48,-9.24 -41.58,16.17 -228.69,-66.99 -205.59,-92.4 9.24,-11.55 2.31,-11.55 -11.55,-2.31 -16.17,9.24 -90.09,-9.24 -161.7,-39.27 -73.92,-32.34 -168.63,-69.3 -207.9,-85.47 -41.58,-16.17 -76.23,-39.27 -76.23,-50.82 0,-11.55 -9.24,-16.17 -20.79,-6.93 -27.72,16.17 -187.11,-57.75 -187.11,-85.47 0,-11.55 -9.24,-16.17 -20.79,-6.93 -13.86,6.93 -20.79,-9.24 -18.48,-32.34 2.31,-41.58 6.93,-43.89 39.27,-13.86 46.2,41.58 85.47,43.89 99.33,6.93 9.24,-23.1 18.48,-20.79 39.27,4.62 20.79,27.72 23.1,23.1 9.24,-23.1 -20.79,-76.23 -25.41,-80.85 -66.99,-46.2 -27.72,23.1 -34.65,20.79 -34.65,-11.55 0,-23.1 -18.48,-55.44 -39.27,-73.92 -36.96,-30.03 -36.96,-30.03 9.24,-9.24 64.68,32.34 69.3,32.34 85.47,-9.24 9.24,-25.41 0,-34.65 -25.41,-30.03 -23.1,4.62 -43.89,-11.55 -48.51,-34.65 -6.93,-34.65 0,-36.96 34.65,-20.79 23.1,11.55 131.67,50.82 242.55,83.16 286.44,87.78 792.33,295.68 676.83,277.2 -50.82,-6.93 -103.95,-23.1 -120.12,-36.96 -16.17,-11.55 -50.82,-16.17 -80.85,-6.93 -36.96,9.24 -43.89,6.93 -23.1,-6.93 23.1,-16.17 11.55,-25.41 -48.51,-36.96 -94.71,-18.48 -175.56,4.62 -127.05,34.65 16.17,11.55 41.58,20.79 53.13,20.79 13.86,0 6.93,-11.55 -11.55,-23.1 -27.72,-18.48 -25.41,-23.1 18.48,-23.1 27.72,0 57.75,13.86 64.68,32.34 6.93,16.17 53.13,50.82 103.95,73.92 80.85,34.65 92.4,48.51 87.78,110.88 -4.62,39.27 -16.17,85.47 -27.72,101.64 -16.17,18.48 -9.24,27.72 25.41,27.72 27.72,0 55.44,11.55 62.37,23.1 6.93,13.86 41.58,23.1 76.23,23.1 48.51,0 55.44,4.62 27.72,23.1 -36.96,23.1 -46.2,23.1 -133.98,6.93 z m -85.47,-122.43 46.2,-20.79 -46.2,-2.31 -46.2,-2.31 46.2,-20.79 c 25.41,-11.55 36.96,-20.79 23.1,-23.1 -11.55,-2.31 -41.58,-6.93 -62.37,-11.55 -20.79,-4.62 -57.75,6.93 -80.85,25.41 -23.1,18.48 -30.03,32.34 -18.48,30.03 13.86,-2.31 39.27,-2.31 57.75,2.31 25.41,2.31 20.79,9.24 -11.55,23.1 l -46.2,20.79 h 46.2 c 25.41,0 66.99,-9.24 92.4,-20.79 z m -457.38,-200.97 c -34.65,-9.24 -36.96,-16.17 -11.55,-48.51 25.41,-30.03 25.41,-32.34 -4.62,-16.17 -18.48,11.55 -43.89,23.1 -57.75,25.41 -11.55,0 -39.27,4.62 -57.75,6.93 -62.37,6.93 20.79,41.58 99.33,41.58 41.58,0 55.44,-4.62 32.34,-9.24 z m 200.97,-138.6 c 39.27,-23.1 39.27,-23.1 -9.24,-36.96 -27.72,-6.93 -43.89,-6.93 -36.96,0 6.93,9.24 -9.24,41.58 -36.96,73.92 -41.58,48.51 -43.89,53.13 -6.93,23.1 25.41,-20.79 64.68,-48.51 90.09,-60.06 z m -85.47,-43.89 c -6.93,-6.93 -27.72,-9.24 -43.89,-2.31 -18.48,6.93 -11.55,13.86 13.86,13.86 25.4101,2.31 39.27,-4.62 30.03,-11.55 z m -309.54,-71.61 c -16.17,-4.62 -43.89,-4.62 -57.75,0 -16.17,6.93 -4.62,11.55 27.72,11.55 32.34,0 43.89,-4.62 30.03,-11.55 z"
       id="path8"
       style="stroke-width:2.31" />
    <path
       d="m 3334.54,8686.6833 c -39.27,-41.58 -55.44,-83.16 -50.82,-115.5 4.62,-27.72 2.31,-46.2 -9.24,-39.27 -9.24,4.62 -16.17,-11.55 -13.86,-39.27 4.62,-78.54 122.43,-145.53 466.62,-270.27 408.87,-145.53 464.31,-161.7 582.12,-164.01 94.71,-2.31 97.02,0 124.74,97.02 13.86,53.13 34.65,108.57 46.2,124.74 25.41,30.03 13.86,39.27 -152.46,117.81 -256.41,122.43 -621.39,261.03 -651.42,249.48 -18.48,-6.93 -27.72,-4.62 -20.79,4.62 16.17,27.72 -133.98,97.02 -205.59,97.02 -30.03,0 -83.16,-27.72 -115.5,-62.37 z m 635.25,-237.93 c -18.48,-11.55 -43.89,-23.1 -57.75,-23.1 -11.55,0 -6.93,11.55 11.55,23.1 18.48,11.55 46.2,23.1 57.75,23.1 13.86,0 6.93,-11.55 -11.55,-23.1 z m 395.01,-173.25 c 43.89,-18.48 62.37,-32.34 43.89,-34.65 -18.48,0 -60.06,-6.93 -92.4,-13.86 -46.2,-11.55 -50.82,-6.93 -23.1,11.55 30.03,23.1 30.03,27.72 0,48.51 -50.82,32.34 -16.17,27.72 71.61,-11.55 z m 9.24,-80.85 c -62.37,-27.72 -99.33,-27.72 -57.75,0 18.48,11.55 50.82,20.79 69.3,20.79 23.1,0 18.48,-6.93 -11.55,-20.79 z m 25.41,-85.47 c -23.1,-23.1 -43.89,11.55 -23.1,41.58 13.86,25.41 18.48,25.41 27.72,0 4.62,-16.17 2.31,-34.65 -4.62,-41.58 z m -99.33,23.1 c -16.17,-4.62 -43.89,-4.62 -57.75,0 -16.17,6.93 -4.62,11.55 27.72,11.55 32.34,0 43.89,-4.62 30.03,-11.55 z"
       id="path10"
       style="stroke-width:2.31" />
    <path
       d="m 6880.39,8548.0833 c 0,-27.72 11.55,-57.75 25.41,-64.68 36.96,-25.41 39.27,-4.62 4.62,57.75 -27.72,55.44 -30.03,55.44 -30.03,6.93 z"
       id="path12"
       style="stroke-width:2.31" />
    <path
       d="m 7083.67,8501.8833 c 16.17,-6.93 36.96,-4.62 43.89,2.31 9.24,6.93 -4.62,13.86 -30.03,11.55 -25.41,0 -32.34,-6.93 -13.86,-13.86 z"
       id="path14"
       style="stroke-width:2.31" />
    <path
       d="m 7042.09,8448.7533 c 0,-11.55 13.86,-23.1 32.34,-23.1 18.48,0 41.58,11.55 48.51,23.1 6.93,13.86 -6.93,23.1 -32.34,23.1 -27.72,0 -48.51,-9.24 -48.51,-23.1 z"
       id="path16"
       style="stroke-width:2.31" />
    <path
       d="m 5053.18,8335.5633 c -108.57,-34.65 -159.39,-73.92 -228.69,-168.63 -66.99,-92.4 -90.09,-150.15 -48.51,-124.74 11.55,6.93 25.41,-2.31 32.34,-20.79 9.24,-20.79 2.31,-27.72 -16.17,-20.79 -23.1,9.24 -25.41,-16.17 -13.86,-106.26 25.41,-194.04 159.39,-300.3 388.08,-300.3 332.64,0 545.16,297.99 385.77,540.54 -23.1,34.65 -46.2,55.44 -53.13,50.82 -6.93,-6.93 2.31,-27.72 18.48,-48.51 16.17,-20.79 23.1,-41.58 16.17,-48.51 -20.79,-20.79 -62.37,76.23 -48.51,113.19 32.34,87.78 -277.2,184.8 -431.97,133.98 z m 445.83,-526.68 c -13.86,-6.93 -23.1,-20.79 -13.86,-32.34 18.48,-32.34 -27.72,-25.41 -55.44,9.24 -18.48,20.79 -9.24,27.72 36.96,30.03 34.65,2.31 48.51,-2.31 32.34,-6.93 z m -565.95,-20.79 c -6.93,-6.93 -27.72,-9.24 -43.89,-2.31 -18.48,6.93 -11.55,13.86 13.86,13.86 25.41,2.31 39.27,-4.62 30.03,-11.55 z m 36.96,-48.51 c -16.17,-4.62 -30.03,-20.79 -30.03,-34.65 0,-13.86 16.17,-18.48 32.34,-11.55 23.1,9.24 30.03,2.31 20.79,-20.79 -11.55,-30.03 -18.48,-27.72 -55.44,4.62 -34.65,32.34 -39.27,43.89 -16.17,60.06 16.17,9.24 41.58,16.17 53.13,16.17 13.86,0 9.24,-6.93 -4.62,-13.86 z"
       id="path18"
       style="stroke-width:2.31" />
    <path
       d="m 5025.46,7413.8733 c -20.79,-23.1 -39.27,-55.44 -39.27,-71.61 0,-32.34 -94.71,-71.61 -191.73,-73.92 l -73.92,-2.31 69.3,-16.17 c 64.68,-13.86 69.3,-20.79 71.61,-133.98 2.31,-143.22 46.2,-217.14 154.77,-270.27 129.36,-60.06 258.72,-48.51 332.64,30.03 39.27,39.27 108.57,76.23 168.63,92.4 80.85,18.48 87.78,23.1 25.41,16.17 -101.64,-9.24 -173.25,53.13 -120.12,101.64 18.48,18.48 46.2,34.65 60.0601,36.96 11.5499,0 36.96,4.62 53.13,4.62 39.2699,6.93 34.65,69.3 -11.55,115.5 -27.72,27.72 -41.58,30.03 -46.2,11.55 -13.8601,-36.96 -76.2301,23.1 -133.9801,122.43 -36.96,64.68 -53.13,71.61 -161.6999,76.23 -90.09,2.31 -129.3601,-6.93 -157.0801,-39.27 z m 272.58,-535.92 c -6.93,-11.55 -27.72,-23.1 -41.58,-23.1 -16.17,0 -13.86,9.24 6.93,23.1 43.89,27.72 53.13,27.72 34.65,0 z"
       id="path20"
       style="stroke-width:2.31" />
    <path
       d="m 3706.45,7275.2733 c -4.62,-9.24 27.72,-13.86 73.92,-9.24 129.36,11.55 143.22,23.1 34.65,25.41 -53.13,2.31 -101.64,-6.93 -108.57,-16.17 z"
       id="path22"
       style="stroke-width:2.31" />
    <path
       d="m 6127.33,7266.0333 c -6.93,-9.24 110.88,-18.48 258.72,-18.48 150.15,0 265.65,4.62 261.03,9.24 -18.48,18.48 -508.2,27.72 -519.75,9.24 z"
       id="path24"
       style="stroke-width:2.31" />
    <path
       d="m 4496.47,7254.4833 c 27.72,-4.62 73.92,-4.62 103.95,0 27.72,4.62 4.62,9.24 -53.13,9.24 -57.75,0 -80.85,-4.62 -50.82,-9.24 z"
       id="path26"
       style="stroke-width:2.31" />
    <path
       d="m 5951.77,7254.4833 c 13.86,-4.62 41.58,-4.62 57.75,0 13.86,6.93 2.31,11.55 -30.03,11.55 -32.34,0 -43.89,-4.62 -27.72,-11.55 z"
       id="path28"
       style="stroke-width:2.31" />
    <path
       d="m 7162.21,7254.4833 c 34.65,-4.62 78.54,-30.03 94.71,-55.44 18.48,-23.1 39.27,-36.96 46.2,-27.72 27.72,25.41 18.48,53.13 -18.48,53.13 -18.48,0 -34.65,11.55 -34.65,23.1 0,13.86 -34.65,20.79 -73.92,20.79 -71.61,-4.62 -71.61,-4.62 -13.86,-13.86 z"
       id="path30"
       style="stroke-width:2.31" />
    <path
       d="m 5674.57,6954.1833 c 13.86,-4.62 41.58,-4.62 57.75,0 13.86,6.93 2.31,11.55 -30.03,11.55 -32.34,0 -43.89,-4.62 -27.72,-11.55 z"
       id="path32"
       style="stroke-width:2.31" />
    <path
       d="m 3664.87,6931.0833 c 16.17,-6.93 36.96,-4.62 43.89,2.31 9.24,6.93 -4.62,13.86 -30.03,11.55 -25.41,0 -32.34,-6.93 -13.86,-13.86 z"
       id="path34"
       style="stroke-width:2.31" />
    <path
       d="m 5106.31,6739.3533 c -69.3,-16.17 -244.86,-122.43 -272.58,-164.01 -4.62,-9.24 0,-23.1 13.86,-32.34 34.65,-20.79 27.72,-57.75 -11.55,-57.75 -18.48,0 -34.65,-9.24 -34.65,-20.79 0,-11.55 16.17,-36.96 34.65,-57.75 34.65,-32.34 46.2,-83.16 20.79,-83.16 -6.93,0 -32.34,11.55 -57.75,23.1 -32.34,18.48 -43.89,16.17 -43.89,-2.31 0,-18.48 -94.71,-25.41 -316.47,-23.1 -175.56,2.31 -411.18,-2.31 -524.3699,-9.24 -161.7,-11.55 -200.9701,-9.24 -194.04,16.17 6.93,18.48 60.0599,30.03 157.08,34.65 159.39,4.62 207.8999,16.17 207.8999,50.82 0,30.03 -364.98,27.72 -383.46,-2.31 -6.93,-11.55 -27.72,-9.24 -46.2,6.93 -23.1,18.48 -25.4099,36.96 -6.93,71.61 23.1,41.58 43.89,46.2 164.01,36.96 122.43,-9.24 131.67,-6.93 83.16,20.79 l -53.13,30.03 57.75,-9.24 c 170.94,-32.34 286.44,-36.96 254.1,-13.86 -25.41,18.48 11.55,20.79 138.6,13.86 145.53,-9.24 154.77,-6.93 57.75,6.93 -62.37,11.55 -330.33,20.79 -591.36,23.1 l -478.1699,2.31 23.0999,-92.4 c 20.79,-78.54 18.4801,-101.64 -13.8599,-136.29 -39.27,-41.58 -36.96,-46.2 41.58,-71.61 55.44,-18.48 291.0599,-25.41 734.58,-23.1 868.56,4.62 866.2499,4.62 900.8999,-30.03 16.17,-16.17 90.09,-48.51 161.7001,-73.92 l 133.9799,-43.89 76.2301,76.23 78.54,73.92 859.3199,4.62 c 822.36,4.62 861.63,6.93 893.97,48.51 18.48,25.41 32.34,62.37 32.34,80.85 -2.31,23.1 -16.17,11.55 -36.96,-25.41 -18.48,-36.96 -39.27,-64.68 -46.2,-64.68 -6.93,0 -4.62,11.55 4.62,27.72 9.24,16.17 6.93,18.48 -11.55,9.24 -41.58,-27.72 -1365.21,-36.96 -1457.61,-13.86 -69.3,18.48 -62.37,20.79 46.2,11.55 85.47,-6.93 115.5,-2.31 92.4,11.55 -23.1,16.17 39.27,23.1 196.35,25.41 127.05,0 251.79,9.24 277.2,18.48 l 46.2,18.48 -46.2,13.86 c -25.41,6.93 -138.6,18.48 -254.1,25.41 -279.51,20.79 -431.97,39.27 -418.11,53.13 6.93,6.93 205.59,16.17 443.52,20.79 455.07,9.24 607.53,30.03 237.93,34.65 -177.87,2.31 -593.67,16.17 -843.15,30.03 -27.72,0 -46.2,13.86 -41.58,25.41 11.55,30.03 -85.47,99.33 -154.77,110.88 -30.03,4.62 -90.09,2.31 -131.67,-6.93 z m -1635.48,-207.9 c 32.34,0 60.06,-9.24 60.06,-23.1 0,-11.55 -41.58,-23.1 -92.4,-23.1 -50.82,0 -92.4,4.62 -92.4,9.24 0,4.62 -6.93,27.72 -16.17,48.51 -11.55,34.65 -6.93,36.96 34.65,13.86 25.41,-13.86 73.92,-25.41 106.26,-25.41 z m 1446.06,23.1 c 18.48,-11.55 25.41,-23.1 11.55,-23.1 -11.55,0 -39.27,11.55 -57.75,23.1 -18.48,11.55 -23.1,23.1 -11.55,23.1 13.86,0 39.27,-11.55 57.75,-23.1 z m 392.7,-254.1 c 0,-11.55 -4.62,-23.1 -9.24,-23.1 -6.93,0 -18.48,11.55 -25.41,23.1 -6.93,13.86 -2.31,23.1 9.24,23.1 13.86,0 25.41,-9.24 25.41,-23.1 z m 1704.78,6.93 c -23.1,-4.62 -64.68,-4.62 -92.4,0 -30.03,4.62 -11.55,9.24 39.27,9.24 50.82,2.31 73.92,-2.31 53.13,-9.24 z"
       id="path36"
       style="stroke-width:2.31" />
    <path
       d="m 7631.14,6723.1833 c -110.88,-11.55 -168.63,-50.82 -122.43,-80.85 20.79,-13.86 13.86,-16.17 -18.48,-9.24 -36.96,11.55 -55.44,0 -73.92,-43.89 -43.89,-97.02 -30.03,-284.13 20.79,-251.79 11.55,6.93 13.86,-4.62 6.93,-23.1 -6.93,-20.79 11.55,-60.06 46.2,-94.71 32.34,-32.34 50.82,-57.75 41.58,-57.75 -9.24,-2.31 6.93,-13.86 36.96,-30.03 53.13,-30.03 53.13,-30.03 -34.65,-76.23 -154.77,-80.85 -166.32,-127.05 -173.25,-628.32 -4.62,-244.86 -13.86,-443.52 -20.79,-443.52 -6.93,0 -13.86,-87.78 -18.48,-191.73 -2.31,-106.26 -11.55,-249.48 -23.1,-318.78 -27.72,-191.73 -2.31,-413.49 46.2,-413.49 11.55,0 18.48,-6.93 16.17,-16.17 -9.24,-41.58 57.75,-138.6 129.36,-187.11 90.09,-60.06 237.93,-66.99 341.88,-13.86 55.44,30.03 64.6801,41.58 39.27,60.06 -23.1,16.17 -20.79,18.48 16.17,9.24 39.27,-11.55 60.06,6.93 115.5,106.26 l 66.99,122.43 -2.31,808.5 c 0,445.83 -4.62,826.98 -9.24,850.08 -6.93,41.58 -32.34,32.34 -36.96,-13.86 -13.86,-145.53 -13.86,-147.84 -30.03,-73.92 -9.24,39.27 -9.24,80.85 0,92.4 9.24,13.86 9.24,39.27 -2.31,57.75 -36.96,57.75 -25.41,80.85 11.55,32.34 32.34,-36.96 32.34,-32.34 0,32.34 -25.41,50.82 -48.51,73.92 -71.61,64.68 -16.17,-6.93 -30.03,0 -25.41,13.86 4.62,30.03 -92.4,85.47 -157.08,90.09 -25.41,0 -2.31,13.86 48.51,30.03 53.13,16.17 117.81,50.82 143.22,73.92 94.71,87.78 124.74,258.72 64.68,374.22 -69.3,136.29 -164.01,173.25 -371.91,150.15 z m 346.5,-187.11 c -13.86,-16.17 -78.54,25.41 -66.99,43.89 6.93,11.55 25.41,6.93 43.89,-9.24 16.17,-13.86 27.72,-30.03 23.1,-34.65 z m -381.15,-362.67 c 0,-11.55 -11.55,-6.93 -23.1,11.55 -11.55,18.48 -23.1,46.2 -23.1,57.75 0,13.86 11.55,6.93 23.1,-11.55 11.55,-18.48 23.1,-43.89 23.1,-57.75 z m -191.73,-478.17 c -6.93,-18.48 -13.86,-11.55 -13.86,13.86 -2.31,25.41 4.62,39.27 11.55,30.03 6.93,-6.93 9.24,-27.72 2.31,-43.89 z m 646.8,-46.2 c -6.93,-18.48 -13.86,-11.55 -13.86,13.86 -2.31,25.41 4.62,39.27 11.55,30.03 6.93,-6.93 9.24,-27.72 2.31,-43.89 z m -20.79,-184.8 c -2.31,-113.19 -6.93,-131.67 -20.79,-80.85 -16.17,57.75 -4.62,224.07 16.17,224.07 4.62,0 6.93,-64.68 4.62,-143.22 z m -626.01,-196.35 c -4.62,-36.96 -9.24,-11.55 -9.24,50.82 0,64.68 4.62,92.4 9.24,64.68 4.62,-30.03 4.62,-80.85 0,-115.5 z m -13.86,-505.89 c -20.79,-85.47 -20.79,-83.16 -20.79,60.06 0,120.12 2.31,138.6 20.79,90.09 13.86,-36.96 13.86,-92.4 0,-150.15 z m 614.46,-568.26 c -6.93,-16.17 -11.55,-4.62 -11.55,27.72 0,32.34 4.62,43.89 11.55,30.03 4.62,-16.17 4.62,-43.89 0,-57.75 z m -626.01,-9.24 c -9.24,-20.79 -20.79,-34.65 -25.41,-27.72 -6.93,6.93 -6.93,30.03 2.31,50.82 9.24,20.79 20.79,34.65 25.41,27.72 6.93,-6.93 6.93,-30.03 -2.31,-50.82 z m 205.59,-263.34 c 6.93,-13.86 -2.31,-16.17 -20.79,-9.24 -41.58,16.17 -48.51,32.34 -16.17,32.34 13.86,0 30.03,-9.24 36.96,-23.1 z"
       id="path38"
       style="stroke-width:2.31" />
    <path
       d="m 2496.01,6674.6733 c -110.88,-110.88 -103.95,-360.36 13.86,-485.1 60.06,-62.37 69.3,-64.68 217.14,-50.82 129.36,9.24 168.63,23.1 219.45,76.23 57.75,55.44 64.68,80.85 64.68,212.52 0,131.67 -9.24,157.08 -64.68,212.52 -55.44,55.44 -83.16,64.68 -233.31,71.61 -147.84,9.24 -177.87,2.31 -217.14,-36.96 z m 496.65,-332.64 c -6.93,-18.48 -13.86,-11.55 -13.86,13.86 -2.31,25.41 4.62,39.27 11.55,30.03 6.93,-6.93 9.24,-27.72 2.31,-43.89 z"
       id="path40"
       style="stroke-width:2.31" />
    <path
       d="m 4692.82,6561.4833 c 20.79,-4.62 53.13,-4.62 69.3,0 13.86,6.93 -2.31,11.55 -41.58,11.55 -36.96,0 -50.82,-4.62 -27.72,-11.55 z"
       id="path42"
       style="stroke-width:2.31" />
    <path
       d="m 3230.59,6515.2833 c 0,-53.13 34.65,-90.09 53.13,-60.06 6.93,11.55 -2.31,39.27 -20.79,64.68 -32.34,41.58 -32.34,41.58 -32.34,-4.62 z"
       id="path44"
       style="stroke-width:2.31" />
    <path
       d="m 3826.57,6330.4833 c 13.86,-4.62 41.58,-4.62 57.75,0 13.86,6.93 2.31,11.55 -30.03,11.55 -32.34,0 -43.89,-4.62 -27.72,-11.55 z"
       id="path46"
       style="stroke-width:2.31" />
    <path
       d="m 2623.06,6087.9333 c -138.6,-30.03 -212.52,-113.19 -247.17,-286.44 -36.96,-170.94 -34.65,-1455.3 0,-1614.69 30.03,-136.29 145.53,-295.68 247.17,-346.5 182.49,-90.09 344.19,-11.55 473.55,231 46.2,87.78 48.51,103.95 23.1,404.25 -13.86,170.94 -32.34,556.71 -41.58,854.7 -16.17,612.15 -32.34,676.83 -180.18,748.44 -87.78,41.58 -113.19,41.58 -274.89,9.24 z m -108.57,-261.03 c 0,-18.48 -16.17,-34.65 -34.65,-34.65 -18.48,0 -34.65,16.17 -34.65,34.65 0,18.48 16.17,34.65 34.65,34.65 18.48,0 34.65,-16.17 34.65,-34.65 z m 501.27,-108.57 c -6.93,-16.17 -11.55,-4.62 -11.55,27.72 0,32.34 4.62,43.89 11.55,30.03 4.62,-16.17 4.62,-43.89 0,-57.75 z m 16.17,-1672.44 c 6.93,-18.48 4.62,-27.72 -9.24,-20.79 -13.86,6.93 -23.1,23.1 -23.1,36.96 0,32.34 16.17,25.41 32.34,-16.17 z m -438.9,-115.5 c 6.93,-18.48 4.62,-27.72 -9.24,-20.79 -13.86,6.93 -23.1,23.1 -23.1,36.96 0,32.34 16.17,25.41 32.34,-16.17 z"
       id="path48"
       style="stroke-width:2.31" />
    <path
       d="m 5078.59,6067.1433 c -30.03,-13.86 -76.23,-43.89 -99.33,-69.3 -27.72,-30.03 -64.68,-43.89 -94.71,-39.27 -34.65,6.93 -50.82,-2.31 -50.82,-30.03 0,-32.34 11.55,-34.65 55.44,-18.48 80.85,30.03 94.71,23.1 27.72,-13.86 l -57.75,-32.34 57.75,-2.31 57.75,-4.62 -62.37,-23.1 c -71.61,-25.41 -85.47,-64.68 -23.1,-66.99 23.1,0 27.72,-6.93 9.24,-13.86 -13.86,-4.62 -23.1,-20.79 -13.86,-32.34 11.55,-20.79 -18.48,-30.03 -87.78,-23.1 -20.79,2.31 -43.89,-6.93 -53.13,-20.79 -18.48,-30.03 32.34,-30.03 159.39,4.62 87.78,23.1 110.88,23.1 145.53,-9.24 71.61,-62.37 154.77,-66.99 251.79,-16.17 62.37,32.34 117.81,41.58 182.49,34.65 66.99,-9.24 76.23,-6.93 34.65,6.93 -32.34,9.24 -55.44,30.03 -50.82,43.89 6.93,34.65 -9.24,34.65 -71.61,0 -43.89,-23.1 -46.2,-20.79 -23.1,9.24 16.17,18.48 23.1,41.58 13.86,50.82 -9.24,9.24 0,9.24 23.1,0 23.1,-6.93 39.27,-2.31 39.27,11.55 0,13.86 -16.17,25.41 -36.96,25.41 -18.48,0 -30.03,9.24 -23.1,20.79 6.93,11.55 36.96,16.17 66.99,9.24 41.58,-9.24 43.89,-6.93 16.17,13.86 -18.48,13.86 -25.41,25.41 -11.55,25.41 11.55,0 -23.1,41.58 -76.23,92.4 -101.64,97.02 -182.49,115.5 -304.92,66.99 z m 117.81,-360.36 c 30.03,-36.96 27.72,-39.27 -6.93,-9.24 -23.1,16.17 -41.58,34.65 -41.58,39.27 0,18.48 18.48,6.93 48.51,-30.03 z"
       id="path50"
       style="stroke-width:2.31" />
    <path
       d="m 3334.54,5970.1233 c -60.06,-50.82 -60.06,-55.44 -20.79,-85.47 36.96,-30.03 39.27,-30.03 27.72,2.31 -11.55,30.03 -2.31,34.65 46.2,27.72 124.74,-20.79 133.98,-32.34 46.2,-69.3 -101.64,-41.58 -115.5,-73.92 -23.1,-60.06 50.82,6.93 55.44,4.62 16.17,-11.55 -46.2,-20.79 -46.2,-20.79 4.62,-36.96 25.41,-9.24 62.37,-32.34 80.85,-53.13 20.79,-25.41 -2.31,-18.48 -69.3,18.48 -55.44,30.03 -110.88,80.85 -122.43,110.88 -11.55,30.03 -27.72,50.82 -32.34,43.89 -30.03,-30.03 34.65,-115.5 150.15,-191.73 157.08,-106.26 656.04,-364.98 801.57,-413.49 l 106.26,-36.96 76.23,83.16 c 129.36,136.29 136.29,164.01 55.44,205.59 -39.27,20.79 -80.85,30.03 -94.71,23.1 -11.55,-9.24 -18.48,-2.31 -16.17,16.17 4.62,16.17 -11.55,27.72 -32.34,27.72 -23.1,-2.31 -36.96,2.31 -32.34,11.55 6.93,9.24 -36.96,41.58 -97.02,73.92 -57.75,30.03 -127.05,73.92 -152.46,94.71 -80.85,71.61 -462,251.79 -561.33,263.34 -76.23,9.24 -108.57,0 -157.08,-43.89 z m 265.65,-113.19 c 0,-11.55 -16.17,-6.93 -34.65,13.86 -18.48,18.48 -34.65,41.58 -34.65,50.82 0,6.93 16.17,2.31 34.65,-13.86 18.48,-16.17 34.65,-39.27 34.65,-50.82 z m 127.05,27.72 c 6.93,-13.86 -2.31,-16.17 -20.79,-9.24 -41.58,16.17 -48.51,32.34 -16.17,32.34 13.86,0 30.03,-9.24 36.96,-23.1 z m -57.75,-286.44 c 0,-6.93 -9.24,-18.48 -23.1,-25.41 -11.55,-6.93 -23.1,-2.31 -23.1,9.24 0,13.86 11.55,25.41 23.1,25.41 13.86,0 23.1,-4.62 23.1,-9.24 z m 69.3,0 c 0,-4.62 -18.48,-23.1 -39.27,-39.27 -36.96,-30.03 -39.27,-27.72 -9.24,9.24 30.03,36.96 48.51,48.51 48.51,30.03 z m 658.35,-129.36 c 23.1,0 30.03,11.55 20.79,30.03 -9.24,13.86 -6.93,18.48 2.31,9.24 32.34,-27.72 34.65,-94.71 4.62,-113.19 -39.27,-25.41 -85.47,-23.1 -85.47,4.62 0,11.55 13.86,16.17 32.34,9.24 18.48,-6.93 39.27,-2.31 48.51,11.55 6.93,13.86 -4.62,25.41 -27.72,25.41 -25.41,0 -64.68,16.17 -90.09,36.96 -41.58,34.65 -41.58,34.65 6.93,11.55 27.72,-13.86 66.99,-25.41 87.78,-25.41 z m -94.71,-55.44 c -6.93,-18.48 9.24,-46.2 34.65,-64.68 27.72,-18.48 41.58,-41.58 32.34,-48.51 -6.93,-9.24 -30.03,2.31 -50.82,25.41 -20.79,20.79 -50.82,39.27 -64.68,41.58 -129.36,9.24 -131.67,13.86 -41.58,43.89 50.82,18.48 94.71,32.34 97.02,32.34 2.31,2.31 0,-11.55 -6.93,-30.03 z m -23.1,-133.98 c -6.93,-9.24 -25.41,-11.55 -43.89,-2.31 -48.51,16.17 -43.89,27.72 9.24,23.1 25.41,0 41.58,-11.55 34.65,-20.79 z"
       id="path52"
       style="stroke-width:2.31" />
    <path
       d="m 6857.29,5986.2933 c -127.05,-43.89 -279.51,-138.6 -261.03,-159.39 11.55,-9.24 4.62,-11.55 -11.55,-2.31 -34.65,20.79 -376.53,-170.94 -358.05,-200.97 6.93,-13.86 2.31,-16.17 -13.86,-6.93 -16.17,9.24 -46.2,-4.62 -73.92,-36.96 -25.41,-30.03 -41.58,-39.27 -32.34,-23.1 9.24,18.48 -11.55,16.17 -66.99,-11.55 -87.78,-39.27 -108.57,-76.23 -46.2,-76.23 18.48,0 27.72,9.24 20.79,23.1 -9.24,13.86 2.31,16.17 25.41,6.93 34.65,-13.86 32.34,-18.48 -16.17,-39.27 -78.54,-32.34 -80.85,-36.96 -43.89,-60.06 30.03,-18.48 27.72,-23.1 -4.6199,-23.1 -20.79,0 -55.44,23.1 -73.92,50.82 -20.79,27.72 -43.89,43.89 -50.82,34.65 -23.1,-23.1 32.34,-136.29 60.06,-120.12 13.86,6.93 16.17,-2.31 9.24,-20.79 -9.24,-23.1 -2.31,-36.96 20.79,-36.96 18.48,0 39.2699,-11.55 43.8899,-27.72 6.9301,-16.17 48.5101,-27.72 94.71,-27.72 62.37,0 207.9,60.06 531.3001,224.07 242.55,124.74 468.93,247.17 501.2699,272.58 l 57.75,46.2 -57.75,-16.17 c -32.3399,-9.24 -69.3,-16.17 -85.4699,-16.17 -16.17,0 -23.1001,-9.24 -16.17,-20.79 18.48,-30.03 -25.4101,-20.79 -73.92,16.17 -41.58,32.34 -41.58,34.65 0,20.79 34.65,-13.86 39.27,-6.93 25.41,32.34 -11.55,39.27 -4.62,50.82 27.72,50.82 39.27,2.31 39.27,2.31 0,32.34 -34.65,27.72 -34.65,34.65 -6.9301,60.06 20.79,13.86 57.75,20.79 87.7801,11.55 48.51,-11.55 50.82,-11.55 13.86,18.48 -23.1,18.48 -36.96,36.96 -32.34,41.58 23.1,23.1 -120.12,11.55 -194.0401,-16.17 z m -406.56,-321.09 c -30.03,-23.1 -34.65,-32.34 -11.55,-34.65 18.48,0 27.72,-4.62 20.79,-11.55 -6.93,-6.93 -27.72,-6.93 -48.51,2.31 -34.65,11.55 -32.34,18.48 13.86,55.44 27.72,23.1 55.44,36.96 60.06,32.34 6.93,-4.62 -9.24,-25.41 -34.65,-43.89 z m 485.1,43.89 c 20.79,-6.93 32.34,-23.1 25.41,-34.65 -6.93,-9.24 -30.03,-11.55 -50.82,-4.62 -25.41,9.24 -32.34,6.93 -20.79,-11.55 18.48,-32.34 -6.93,-34.65 -53.13,-6.93 -66.99,41.58 16.17,90.09 99.33,57.75 z m -378.84,-124.74 c -18.48,-11.55 -43.89,-23.1 -57.75,-23.1 -11.55,0 -6.93,11.55 11.55,23.1 18.48,11.55 46.2,23.1 57.75,23.1 13.86,0 6.93,-11.55 -11.55,-23.1 z m -11.55,-115.5 c -6.93,-11.55 -27.72,-23.1 -41.58,-23.1 -16.17,0 -13.86,9.24 6.93,23.1 43.89,27.72 53.13,27.72 34.65,0 z m -249.48,-83.16 c -6.93,-6.93 -27.72,-9.24 -43.89,-2.31 -18.48,6.93 -11.55,13.86 13.86,13.86 25.41,2.31 39.27,-4.62 30.03,-11.55 z m -247.17,-101.64 c 0,-11.55 -4.62,-23.1 -9.24,-23.1 -6.93,0 -18.48,11.55 -25.41,23.1 -6.93,13.86 -2.31,23.1 9.24,23.1 13.86,0 25.41,-9.24 25.41,-23.1 z"
       id="path54"
       style="stroke-width:2.31" />
    <path
       d="m 4602.73,5766.8433 c -6.93,-13.86 -4.62,-34.65 9.24,-48.51 13.86,-13.86 27.72,-13.86 39.27,6.93 13.86,18.48 9.24,23.1 -11.55,9.24 -23.1,-13.86 -27.72,-9.24 -16.17,18.48 16.17,43.89 4.62,53.13 -20.79,13.86 z"
       id="path56"
       style="stroke-width:2.31" />
    <path
       d="m 4778.29,5736.8133 c 0,-4.62 16.17,-13.86 34.65,-23.1 18.48,-6.93 34.65,-2.31 34.65,9.24 0,13.86 -16.17,23.1 -34.65,23.1 -18.48,0 -34.65,-4.62 -34.65,-9.24 z"
       id="path58"
       style="stroke-width:2.31" />
    <path
       d="m 5829.34,5667.5133 c -25.41,-16.17 -66.99,-36.96 -92.4,-43.89 -43.89,-9.24 -43.89,-11.55 2.31,-13.86 27.72,0 73.92,18.48 103.95,43.89 64.68,50.82 53.13,62.37 -13.86,13.86 z"
       id="path60"
       style="stroke-width:2.31" />
    <path
       d="m 5067.04,5494.2633 c -254.1,-60.06 -362.67,-261.03 -291.06,-533.61 0,-6.93 30.03,-43.89 66.99,-85.47 85.47,-99.33 231,-154.77 358.05,-136.29 117.81,18.48 261.03,90.09 254.1,127.05 -4.62,13.86 4.62,23.1 18.48,20.79 16.17,-4.62 46.2,48.51 71.61,115.5 48.51,140.91 32.34,251.79 -53.13,360.36 -85.47,108.57 -272.58,166.32 -425.04,131.67 z m 353.43,-175.56 c -6.93,-6.93 -20.79,4.62 -27.72,27.72 -13.86,32.34 -11.55,34.65 11.55,13.86 16.17,-16.17 23.1,-34.65 16.17,-41.58 z m 80.85,-300.3 c -6.93,-20.79 -18.48,-32.34 -23.1,-25.41 -6.93,6.93 -4.62,20.79 4.62,34.65 20.79,36.96 34.65,30.03 18.48,-9.24 z m -90.09,-136.29 c -6.93,-20.79 -23.1,-36.96 -34.65,-36.96 -11.55,0 -9.2399,20.79 6.93,46.2 32.34,50.82 48.51,46.2 27.72,-9.24 z m -110.88,-80.85 c -9.24,-13.86 -27.72,-25.41 -41.58,-25.41 -16.17,0 -16.17,9.24 2.31,30.03 13.86,18.48 20.79,36.96 16.17,43.89 -2.31,6.93 2.31,4.62 16.17,-4.62 11.55,-11.55 13.86,-30.03 6.93,-43.89 z m -221.76,23.1 c 0,-11.55 18.48,-27.72 41.58,-32.34 25.41,-6.93 16.17,-11.55 -23.1,-13.86 -34.65,0 -66.99,6.93 -76.23,20.79 -6.93,11.55 -27.72,16.17 -43.89,9.24 -18.48,-6.93 -36.96,-4.62 -43.89,6.93 -6.93,9.24 23.1001,20.79 66.99,23.1 43.89,4.62 78.54,-2.31 78.54,-13.86 z"
       id="path62"
       style="stroke-width:2.31" />
    <path
       d="m 5910.19,5454.9933 c 0,-18.48 11.55,-27.72 23.1,-20.79 13.86,9.24 18.48,25.41 11.55,36.96 -20.79,32.34 -34.65,25.41 -34.65,-16.17 z"
       id="path64"
       style="stroke-width:2.31" />
    <path
       d="m 5979.49,4999.9233 c -60.06,-48.51 -120.12,-157.08 -106.26,-191.73 6.93,-20.79 2.31,-27.72 -9.24,-20.79 -13.86,6.93 -23.1,6.93 -23.1,-4.62 0,-20.79 143.22,-145.53 168.63,-145.53 9.24,0 122.43,-53.13 254.1,-117.81 244.86,-122.43 561.33,-237.93 593.67,-217.14 11.55,6.93 25.41,2.31 34.65,-11.55 6.93,-11.55 39.27,-23.1 66.99,-23.1 43.89,0 64.68,25.41 103.95,117.81 25.41,66.99 48.51,138.6 48.51,159.39 0,53.13 -122.43,97.02 -194.04,69.3 -36.96,-13.86 -53.13,-11.55 -53.13,11.55 0,16.17 16.17,25.41 36.96,18.48 20.79,-4.62 -13.86,18.48 -73.92,50.82 -62.37,34.65 -129.36,55.44 -147.8399,48.51 -16.17,-6.93 -27.72,-4.62 -20.79,6.93 18.48,27.72 -304.92,168.63 -339.57,150.15 -16.17,-9.24 -20.79,-9.24 -11.55,2.31 20.79,20.79 -196.35,127.05 -254.1,127.05 -23.1,0 -55.44,-13.86 -73.9201,-30.03 z m 207.9,-73.92 c 0,-4.62 -13.86,-11.55 -30.03,-18.48 -18.48,-6.93 -32.34,2.31 -32.34,18.48 0,16.17 13.86,25.41 32.34,18.48 16.17,-6.93 30.03,-13.86 30.03,-18.48 z m 62.37,-348.81 c -6.93,-6.93 -27.72,-9.24 -43.89,-2.31 -18.48,6.93 -11.55,13.86 13.86,13.86 25.41,2.31 39.27,-4.62 30.03,-11.55 z m 803.88,-62.37 c 2.31,-36.96 -11.55,-62.37 -27.72,-62.37 -16.17,0 -30.03,9.24 -30.03,18.48 0,11.55 -34.65,36.96 -73.92,57.75 -41.58,23.1 -55.44,34.65 -30.03,27.72 25.41,-4.62 62.37,0 80.85,11.55 53.13,34.65 80.85,13.86 80.85,-53.13 z m -364.98,-53.13 c -6.93,-6.93 -27.72,-9.24 -43.89,-2.31 -18.48,6.93 -11.55,13.86 13.86,13.86 25.4101,2.31 39.27,-4.62 30.03,-11.55 z m -39.27,-41.58 c 0,-25.41 -43.89,-34.65 -57.75,-13.86 -6.93,11.55 2.31,23.1 20.79,23.1 20.79,0 36.96,-4.62 36.96,-9.24 z m 92.4,-23.1 c 0,-4.62 -20.79,-13.86 -46.2,-20.79 -25.41,-6.93 -41.58,-2.31 -32.34,9.24 11.55,20.79 78.54,30.03 78.54,11.55 z m 249.48,-41.58 c -4.62,-27.72 -18.48,-53.13 -32.34,-57.75 -16.17,-4.62 -23.1,13.86 -16.17,50.82 13.8601,69.3 60.06,78.54 48.51,6.93 z"
       id="path66"
       style="stroke-width:2.31" />
    <path
       d="m 4168.45,4967.5833 c -34.65,-9.24 -36.96,-16.17 -11.55,-34.65 23.1,-16.17 20.79,-18.48 -16.17,-9.24 -64.68,18.48 -261.03,-53.13 -589.05,-210.21 -219.45,-106.26 -274.89,-143.22 -272.58,-180.18 0,-25.41 6.93,-32.34 13.86,-16.17 4.62,13.86 27.72,27.72 48.51,27.72 34.65,0 34.65,4.62 4.62,25.41 -27.72,18.48 -20.79,20.79 30.03,11.55 34.65,-9.24 85.47,-4.62 110.88,11.55 41.58,20.79 46.2,18.48 39.27,-18.48 -6.93,-30.03 -27.72,-39.27 -76.23,-36.96 -39.27,2.31 -55.44,0 -36.96,-9.24 16.17,-6.93 50.82,-32.34 73.92,-55.44 25.41,-25.41 60.06,-36.96 94.71,-27.72 50.82,13.86 50.82,11.55 -9.24,-36.96 -34.65,-27.72 -97.02,-64.68 -138.6,-83.16 l -76.23,-32.34 71.61,-2.31 c 127.05,0 926.31,318.78 1055.67,425.04 32.34,25.41 36.96,43.89 20.79,73.92 -13.86,25.41 -25.41,30.03 -36.96,11.55 -9.24,-13.86 -4.62,-25.41 11.55,-25.41 50.82,0 -9.24,-41.58 -71.61,-50.82 -32.34,-4.62 -55.44,-20.79 -50.82,-36.96 2.31,-13.86 -13.86,-27.72 -36.96,-27.72 -23.1,0 -55.44,-13.86 -71.61,-27.72 -25.41,-23.1 -30.03,-23.1 -16.17,0 20.79,36.96 -6.93,34.65 -78.54,-9.24 -57.75,-34.65 -57.75,-34.65 -2.31,-18.48 36.96,9.24 48.51,6.93 39.27,-11.55 -9.24,-13.86 -50.82,-25.41 -90.09,-25.41 -60.06,2.31 -66.99,4.62 -34.65,23.1 23.1,13.86 34.65,43.89 30.03,69.3 -9.24,46.2 11.55,60.06 43.89,30.03 30.03,-30.03 129.36,-23.1 129.36,9.24 0,16.17 -9.24,30.03 -23.1,30.03 -46.2,0 -20.79,62.37 36.96,87.78 32.34,16.17 50.82,39.27 41.58,53.13 -9.24,16.17 0,20.79 32.34,11.55 62.37,-20.79 83.16,18.48 36.96,64.68 -34.65,34.65 -133.98,43.89 -226.38,20.79 z m -321.09,-228.69 c -6.93,-6.93 -27.72,-9.24 -43.89,-2.31 -18.48,6.93 -11.55,13.86 13.86,13.86 25.41,2.31 39.27,-4.62 30.03,-11.55 z m -124.74,-279.51 c -16.17,-4.62 -43.89,-4.62 -57.75,0 -16.17,6.93 -4.62,11.55 27.72,11.55 32.34,0 43.89,-4.62 30.03,-11.55 z m -6.93,-39.27 c 0,-4.62 -30.03,-20.79 -69.3,-34.65 -80.85,-27.72 -94.71,-11.55 -16.17,20.79 57.75,23.1 85.47,27.72 85.47,13.86 z"
       id="path68"
       style="stroke-width:2.31" />
    <path
       d="M27 103 c-25 -4 -27 -8 -27 -54 0 -48 1 -49 30 -49 30 0 30 1 30 55 0 30 -1 54 -2 54 -2 -1 -15 -4 -31 -6z"
       id="path98" />
    <text
       xml:space="preserve"
       transform="matrix(17.325,0,0,-17.325,-10275.938,15777.532)"
       id="text441"
       style="font-weight:bold;font-size:192px;line-height:0.6;font-family:Arial;-inkscape-font-specification:'Arial Bold';white-space:pre;shape-inside:url(#rect443);display:inline;fill:#97d5dc;stroke:#ffffff;stroke-width:9.33333;stroke-linecap:round;stroke-linejoin:round;stroke-miterlimit:0;stroke-dasharray:none;paint-order:stroke markers fill"
       x="186.71935"
       y="0"><tspan
         x="700.24452"
         y="768.83587"
         id="tspan544"><tspan
           style="font-size:106.667px;font-family:Tred;-inkscape-font-specification:'Tred Bold';text-align:center;text-anchor:middle;opacity:1;fill:#000000;stroke:#000000"
           id="tspan542">STADEN
</tspan></tspan><tspan
         x="828.26575"
         y="884.03588"
         id="tspan548"><tspan
           style="font-size:106.667px;font-family:Tred;-inkscape-font-specification:'Tred Bold';text-align:center;text-anchor:middle;opacity:1;fill:#000000;stroke:#000000"
           id="tspan546">LG</tspan></tspan></text>
    <text
       xml:space="preserve"
       transform="matrix(7.5,0,0,-7.5,0,10240)"
       id="text475"
       style="fill:#000000;stroke:#000000;font-size:5.33333333px;-inkscape-font-specification:'Tred Bold';font-family:Tred;line-height:2.2;font-weight:bold;stroke-miterlimit:0;stroke-width:9.33333333;stroke-linejoin:round;stroke-linecap:round;paint-order:stroke markers fill;white-space:pre;shape-inside:url(#rect477)" />
  </g>
</svg>
